<?xml version="1.0" encoding="UTF-8"?>
<svg id="b" data-name="Layer 2" xmlns="http://www.w3.org/2000/svg" width="609.303" height="420.988" viewBox="0 0 609.303 420.988">
  <g id="c" data-name="Layer 4">
    <polygon points="190.8 12.373 364.02 12.373 502.597 51.966 596.631 141.051 591.681 230.136 532.292 279.627 497.648 334.068 344.224 408.305 161.105 388.508 62.122 299.424 17.58 289.525 12.631 205.39 52.224 155.898 76.97 81.661 190.8 12.373" fill="#fae600" opacity=".74" stroke="#fa8900" stroke-miterlimit="10" stroke-width="24.746"/>
    <polygon points="110.879 170.001 257.995 232.386 516.536 168.448 538.224 133.674 522.495 263.546 411.742 336.115 178.069 328.092 110.879 170.001" fill="#faaa00" opacity=".74" stroke-width="0"/>
    <path d="m195.343,207.998l11.954,59.605s211.97-77.867,307.141-60.563l2.098-38.592-227.046,42.918-94.147-3.368Z" fill="#fff" opacity=".74" stroke-width="0"/>
    <polygon points="125.105 100.531 500.402 59.958 530.831 156.318 500.402 186.748 434.471 161.39 414.185 136.032 358.397 141.103 343.183 207.034 262.037 252.678 160.606 227.32 125.105 100.531" fill="#fa8900" opacity=".74" stroke-width="0"/>
    <polygon points="177.631 328.263 233.253 271.928 367.357 276.254 393.312 254.625 477.631 293.263 411.631 338.263 177.631 328.263" fill="#d6fa00" opacity=".74" stroke-width="0"/>
  </g>
</svg>